<svg xmlns="http://www.w3.org/2000/svg" width="44" height="44" viewBox="0 0 44 44">
  <g id="그룹_18" data-name="그룹 18" transform="translate(-6 -6)">
    <path id="패스_2" data-name="패스 2" d="M6,6H50V50H6Z" fill="none" fill-rule="evenodd"/>
    <path id="패스_3" data-name="패스 3" d="M28.223,20.385a3.583,3.583,0,0,0,2.5-1.353,4.4,4.4,0,0,0,.972-2.658A1.808,1.808,0,0,0,31.656,16a4.056,4.056,0,0,0-2.707,1.45,4.165,4.165,0,0,0-1.008,2.572,1.662,1.662,0,0,0,.036.338A1.219,1.219,0,0,0,28.223,20.385ZM25.293,35c1.137,0,1.64-.785,3.059-.785,1.441,0,1.757.76,3.023.76,1.242,0,2.074-1.183,2.86-2.342A10.837,10.837,0,0,0,35.5,29.939,4.159,4.159,0,0,1,33.04,26.1a4.322,4.322,0,0,1,1.98-3.624,4.286,4.286,0,0,0-3.645-1.884c-1.4,0-2.531.87-3.246.87-.774,0-1.793-.822-3-.822-2.3,0-4.629,1.957-4.629,5.653a11.928,11.928,0,0,0,1.934,6.293C23.348,33.913,24.144,35,25.293,35Z"/>
  </g>
</svg>